<svg xmlns="http://www.w3.org/2000/svg" viewBox="0 0 227 227">
<!-- SVG created with Arrow, by QuiverAI (https://quiver.ai) -->
  <style type="text/css">.cls-0 {fill:url(#SVGID_1_);}
.cls-1 {fill:#E2D6AB;}
.cls-2 {fill:url(#SVGID_2_);}
.cls-3 {fill:url(#SVGID_3_);}
.cls-4 {fill:url(#SVGID_4_);}
.cls-5 {fill:url(#SVGID_5_);}
.cls-6 {fill:url(#SVGID_6_);}
.cls-7 {fill:url(#SVGID_7_);}
.cls-8 {fill:url(#SVGID_8_);}
.cls-9 {fill:url(#SVGID_9_);}
.cls-10 {fill:#FCCC4A;}
.cls-11 {fill:url(#SVGID_10_);}
.cls-12 {fill:#F2E09C;}
.cls-13 {fill:#593218;}</style>
  <linearGradient id="SVGID_1_" x1="113.5" x2="113.5" y1="91.9" y2="-1.294e-9" gradientUnits="userSpaceOnUse">
    <stop stop-color="#333" offset="0"/>
    <stop stop-color="#040E1E" offset="1"/>
  </linearGradient>
  <rect class="cls-0" width="227" height="91.9"/>
  <circle class="cls-1" cx="105.3" cy="78.2" r="13.5"/>
  <linearGradient id="SVGID_2_" x1="29.4" x2="29.4" y1="87.8" y2="82.1" gradientUnits="userSpaceOnUse">
    <stop stop-color="#945C25" offset="0"/>
    <stop stop-color="#FFCD4B" offset="1"/>
  </linearGradient>
  <path class="cls-2" d="m15.6 85 14.9-2.9h0.5c1.1 2.1-8 3.9-8 4.6l-7.4-1.7z"/>
  <linearGradient id="SVGID_3_" x1="42.3" x2="42.3" y1="87.7" y2="82.1" gradientUnits="userSpaceOnUse">
    <stop stop-color="#E0AD42" offset="0"/>
    <stop stop-color="#FFDA58" offset="1"/>
  </linearGradient>
  <path class="cls-3" d="m23 86.4 7.9-4.3 18.2 3.9-9.4 2.3-16.7-1.9z"/>
  <linearGradient id="SVGID_4_" x1="172.8" x2="172.8" y1="94.9" y2="83.1" gradientUnits="userSpaceOnUse">
    <stop stop-color="#9A6729" offset="0"/>
    <stop stop-color="#C08535" offset="1"/>
  </linearGradient>
  <path class="cls-4" d="m143.6 89.3c13.9-0.8 39.9-6.2 39.9-6.2l3.3 1s-13.1 2.2-9.3 3.9c2.2 1 9.8 1.4 9.4 2.8-0.4 1.9-19.4 3-19.4 3l-23.9-4.5z"/>
  <linearGradient id="SVGID_5_" x1="113.5" x2="113.5" y1="98.3" y2="74.4" gradientUnits="userSpaceOnUse">
    <stop stop-color="#BA8132" offset="0"/>
    <stop stop-color="#FCCC4A" offset=".5198"/>
    <stop stop-color="#FFD84E" offset="1"/>
  </linearGradient>
  <path class="cls-5" d="m0 82.5v12.7l39.7-6.6c11.7-2 27.6-5.8 47.5-13.2 1.9-0.7 3.9-1.2 9.8 0.1 23.5 6.5 48 13.5 70.5 17.7 22.4 4.2 43.2 5.1 59.5 5.4v-9.7c-5.3 0.5-11.6 0.5-17.9 0.4-8.2-0.1-21.8-4.3-25.6-6.1-3.8 1-8 2.1-6.6 3.9s10.8 1.8 10 3.8c-0.9 2.3-19.4 2.9-19.4 2.9-24.9-3.4-47.5-9.2-70.5-18.3-2-0.8-5.5-1.4-8.9-0.8"/>
  <linearGradient id="SVGID_6_" x1="45.4" x2="45.4" y1="105.9" y2="74.46" gradientUnits="userSpaceOnUse">
    <stop stop-color="#563418" offset="0"/>
    <stop stop-color="#9B6729" offset="1"/>
  </linearGradient>
  <path class="cls-6" d="m0 82.5 23 3.9 16.7 1.9c-12.5 2.3-26.2 5-39.7 6.7v2l47.2 6.9 17.4 2c3.8-0.3 34.1-3.1 34-8.7-0.1-4.4-15.8-5.5-18.2-7.2-6.9-4.9 7.3-6.3 13.6-9.2 5.6-2.6 2.5-6.4-4-6.3-2.8 0-18.9 5.6-39.9 11.2l-19.1-3.6c0.1 2.6-8 4.3-8 4.3"/>
  <linearGradient id="SVGID_7_" x1="78.9" x2="78.9" y1="114.5" y2="74.4" gradientUnits="userSpaceOnUse">
    <stop stop-color="#AC742D" offset="0"/>
    <stop stop-color="#FCC646" offset=".5337"/>
    <stop stop-color="#FFCA48" offset="1"/>
  </linearGradient>
  <path class="cls-7" d="m0 96.3 47.2 6.7 17.4 2.6c6.9 0 34.3-3.4 34.1-8.6-0.2-4.3-13.2-5.3-17.1-6.7-6.9-2.5-2-5.2 4.1-6.8 4.8-1.3 11.1-2.6 10.9-6 0-0.8-1.2-2-5-3 5.2 0 27 7.9 52.6 14.3-15.4-2-48-9.5-52.5-14.3 2 0.3 2.2 0.2 5.2 1 21 5.8 39.7 11.1 70.6 17.7 3.1 0.9-25.3-2.9-25.3-2.9 12.3 3.3 42.5 6.1 42.9 5.8 9.1-0.6 26.6-2.8 41.9-5.1v12l-64.8 8.1-27.8 3.4-69.8-8.9s-46.1-7-64.6-9.3z"/>
  <linearGradient id="SVGID_8_" x1="183.9" x2="183.9" y1="123.3" y2="83.1" gradientUnits="userSpaceOnUse">
    <stop stop-color="#56321C" offset="0"/>
    <stop stop-color="#C08535" offset="1"/>
  </linearGradient>
  <path class="cls-8" d="m162.2 111.1 64.8-8.1v20.3l-36.3-7.2-28.5-5z"/>
  <linearGradient id="SVGID_9_" x1="117" x2="117" y1="193.8" y2="111" gradientUnits="userSpaceOnUse">
    <stop stop-color="#56321C" offset="0"/>
    <stop stop-color="#A9732C" offset=".4382"/>
    <stop stop-color="#D69D3B" offset=".7473"/>
    <stop stop-color="#FFCC4A" offset="1"/>
  </linearGradient>
  <path class="cls-9" d="m0 96.3v60.1l49.8 6.3c17.7-2.2 57.4-9.7 76.6-16.7 10.5-3.5 43.1-15.2 43.6-29.4 0.2-4.7-5.8-5.9-11.3-5.6-11.1 0.6-45.1 7-68.8 12.1-22.7 4.3-53.5 10.4-89.9 11.4v-25.2l89.9 14.2 44.5-9-87.2-11.5-47.2-6.7z"/>
  <path class="cls-10" d="m0 109v-5.1c13.7 4 38.5 12.6 73.8 17.2l16.1 2.4 0.7 0.1c-21.2-0.7-50.7-5.9-90.6-14.6z"/>
  <linearGradient id="SVGID_10_" x1="113.5" x2="113.5" y1="227" y2="111" gradientUnits="userSpaceOnUse">
    <stop stop-color="#683A1C" offset="0"/>
    <stop stop-color="#BF8636" offset=".505"/>
    <stop stop-color="#D69D3B" offset=".7527"/>
    <stop stop-color="#FFCC4A" offset="1"/>
  </linearGradient>
  <path class="cls-11" d="m0 156.4c11.2 0.5 23.7 1.2 49.8 6.2 43.9 5.3 99.1 16.8 177.2 31.1v-70.4l-64.7-12.3c5.2 0 8.6 1.6 7.7 6.6-1.6 9-25.5 19.3-43.6 24.9-18.9 5.9-45 12.9-76.6 20.1-18.9-3-34.4-5.2-49.8-6.2z"/>
  <path class="cls-13" d="m49.8 162.7c17.7-2.2 57.4-9.7 76.6-16.7 12.7-4.1 43.5-15.4 43.5-29.4 0-7.5-13-5.6-13-5.6-11.1 0.6-43.3 7-67 11.9-22.7 4.3-53.5 10.6-89.9 11.6v21.9c11.2 0.5 23.7 1.2 49.8 4.7"/>
  <path class="cls-10" d="m96.6 93.1c13.8 1.1 26.3 6.8 49.2 12.1-12.9-1.6-35.8-6.7-49.2-12.1z"/>
  <path class="cls-10" d="m143.6 96.4c10 2.7 23.3 5.7 37.8 8.1-9.2-0.9-26-4.1-37.8-8.1z"/>
  <path class="cls-10" d="m143.6 93.5c9.5 2.4 34.3 7.9 62.8 9.5-21.5-0.4-48.5-4.8-62.8-9.5z"/>
  <path class="cls-10" d="m192.9 88.5c6.5 1.9 12.1 3.5 18.6 4-4.8 0.1-13.8-1.9-18.6-4z"/>
  <path class="cls-13" d="m29.1 99.6c10.4-1.1 26.4-3.6 41.4-9.2-9.3 3.6-24.9 8.1-41.4 9.2z"/>
  <linearGradient id="SVGID_11_" x1="183.9" x2="183.9" y1="193.8" y2="131.8" gradientUnits="userSpaceOnUse">
    <stop stop-color="#56321C" offset="0"/>
    <stop stop-color="#9D682A" offset="1"/>
  </linearGradient>
  <path d="m137.4 161.4c13.2-9.9 41.5-28.8 89.6-29.6v62c-27-2.7-65.5-9.2-89.6-13.8v-18.6z" fill="url(#SVGID_11_)"/>
  <path class="cls-13" d="m23 180.6 1-0.5 1.1 0.5h-2.1z"/>
  <path class="cls-13" d="m40.1 184.7 1.8 0.2-0.3 0.1 0.3 0.1-1.8-0.4z"/>
  <path class="cls-13" d="m41.9 184.9 0.7-0.3 0.5 0.4-0.2 0.1h-1v-0.2z"/>
  <path class="cls-13" d="m90.9 216.4 1-0.3 1.1 0.5-2.1-0.2z"/>
  <path class="cls-13" d="m116.4 198.6 1-0.2 0.7 0.3v0.2l-1.7-0.3z"/>
  <path class="cls-13" d="m123.6 198 1.9-0.8 1.4 0.8v0.1l-3.3-0.1z"/>
  <path class="cls-12" d="m51.9 123.9 1.5-0.3v0.4l-1.5 0.1v-0.2z"/>
  <path class="cls-12" d="m36.5 94.2 0.1 0.3 0.3-0.1-0.4-0.2z"/>
  <circle class="cls-12" cx="6.9" cy="148.9" r=".2"/>
  <circle class="cls-12" cx="40.9" cy="65.1" r=".2"/>
  <circle class="cls-12" cx="46.5" cy="53.2" r=".2"/>
  <circle class="cls-12" cx="46.5" cy="53.4" r=".3"/>
  <circle class="cls-12" cx="57" cy="44.4" r=".2"/>
  <circle class="cls-12" cx="69.4" cy="56" r=".2"/>
  <circle class="cls-12" cx="70.8" cy="68.2" r=".2"/>
  <circle class="cls-12" cx="77.2" cy="154.2" r=".2"/>
  <circle class="cls-12" cx="88" cy="142" r=".1"/>
  <circle class="cls-12" cx="112.6" cy="124.9" r=".2"/>
  <circle class="cls-12" cx="117.9" cy="128.2" r=".2"/>
  <circle class="cls-12" cx="137.4" cy="109.5" r=".2"/>
  <circle class="cls-12" cx="154.7" cy="109.4" r=".1"/>
  <circle class="cls-12" cx="157.9" cy="76.6" r=".1"/>
  <circle class="cls-12" cx="157.9" cy="76.6" r=".3"/>
  <circle class="cls-12" cx="166.4" cy="65.1" r=".2"/>
  <circle class="cls-12" cx="189.5" cy="64.4" r=".2"/>
  <circle class="cls-12" cx="189.6" cy="64.4" r=".3"/>
  <circle class="cls-12" cx="199.9" cy="55.1" r=".1"/>
  <circle class="cls-12" cx="210" cy="74.9" r=".1"/>
  <circle class="cls-12" cx="210.1" cy="74.9" r=".3"/>
  <circle class="cls-12" cx="216.1" cy="82.1" r=".2"/>
  <circle class="cls-12" cx="223" cy="113.2" r=".2"/>
  <circle class="cls-12" cx="212.4" cy="209.6" r=".2"/>
  <circle class="cls-12" cx="111.6" cy="209.5" r=".1"/>
  <circle class="cls-12" cx="94.9" cy="217.5" r=".1"/>
  <circle class="cls-12" cx="142.6" cy="213.7" r=".2"/>
  <circle class="cls-12" cx="168.9" cy="172.9" r=".1"/>
  <circle class="cls-12" cx="170.9" cy="172.6" r=".1"/>
  <circle class="cls-12" cx="170.9" cy="172.6" r=".3"/>
  <circle class="cls-12" cx="6.5" cy="58.1" r=".2"/>
  <circle class="cls-12" cx="26.3" cy="122.6" r=".2"/>
</svg>